<svg width="116" height="136" viewBox="0 0 116 136" fill="none" xmlns="http://www.w3.org/2000/svg">
<path d="M44.0233 103.472L37.4464 98.6074L21.0515 134.999L44.0233 103.472Z" fill="#A9A9A9" stroke="black" stroke-linecap="square" stroke-linejoin="round"/>
<path d="M41.5199 99.7441L22.2062 132.965" stroke="black" stroke-linecap="square" stroke-linejoin="round"/>
<path d="M70.701 103.472L77.278 98.6074L93.6727 134.999L70.701 103.472Z" fill="#A9A9A9" stroke="black" stroke-linecap="square" stroke-linejoin="round"/>
<path d="M73.5876 100.312L92.9013 133.533" stroke="black" stroke-linecap="square" stroke-linejoin="round"/>
<path d="M37.7644 24.0556C39.2638 27.034 40.2354 28.7668 42.2209 31.9333L33.2109 33.684C32.1905 31.9637 31.5943 30.9663 30.1108 28.6267C29.2588 27.6723 28.7942 27.3938 27.9794 27.1679L37.7644 21.4297C37.5932 22.4577 37.5881 23.0274 37.7644 24.0556Z" fill="#A9A9A9" stroke="black" stroke-linecap="round" stroke-linejoin="round"/>
<path d="M28.8104 23.294L33.4851 20.8649L22.7699 1.3478C22.2717 1.15914 21.8862 1.05609 21.5062 1.01768C21.1191 0.978533 20.7281 1.00552 20.218 1.08752L18.6946 1.92857C18.1624 2.33207 17.8823 2.65216 17.7363 2.97946C17.5935 3.29983 17.5698 3.64748 17.5981 4.13114L28.8104 23.294Z" fill="#373737" stroke="black" stroke-linecap="round" stroke-linejoin="round"/>
<path d="M36.5 30.5L37.6277 32.5046" stroke="black" stroke-linecap="square" stroke-linejoin="round"/>
<path d="M36.5 30.5L31 26.5L21 31L19.5 34L16 32.5V28.5H19.5L28.5 23L28 16L33.5 20L42 15.5L43.5 13L46.5 14.5L47 18L43.5 18.5L35.5 24L36.5 30.5Z" fill="#5A5A5A" stroke="black" stroke-linejoin="round"/>
<path d="M32.68 24.5722C31.9143 24.9718 30.9594 24.679 30.5473 23.9183C30.1351 23.1575 30.4218 22.2169 31.1875 21.8173C31.9532 21.4177 32.908 21.7105 33.3202 22.4712C33.7323 23.232 33.4457 24.1726 32.68 24.5722Z" fill="black" fill-opacity="0.9" stroke="black"/>
<path d="M31.9002 24.0185C31.4565 24.0185 31.0968 23.6654 31.0968 23.2299C31.0968 22.7944 31.4565 22.4414 31.9002 22.4414C32.3439 22.4414 32.7036 22.7944 32.7036 23.2299C32.7036 23.6654 32.3439 24.0185 31.9002 24.0185Z" fill="#878787" stroke="#363636"/>
<path d="M76.3122 24.831C74.8128 27.8092 73.8413 29.5422 71.8557 32.7087L80.8658 34.4592C81.8862 32.7389 82.4824 31.7416 83.9658 29.4019C84.8178 28.4475 85.4739 27.8223 86.2887 27.5963L76.3122 22.2051C76.4834 23.2329 76.4885 23.8028 76.3122 24.831Z" fill="#A9A9A9" stroke="black" stroke-linecap="round" stroke-linejoin="round"/>
<path d="M85.4434 23.294L80.7686 20.865L91.4838 1.3478C91.9821 1.15914 92.3674 1.05609 92.7474 1.01768C93.1346 0.978532 93.5256 1.00552 94.0358 1.08752L95.5592 1.92857C96.0914 2.33207 96.3714 2.65216 96.5174 2.97946C96.6602 3.29984 96.6839 3.64748 96.6556 4.13115L85.4434 23.294Z" fill="#373737" stroke="black" stroke-linecap="round" stroke-linejoin="round"/>
<path d="M87 15.5L81 20.5L71 16L69.5 13L66 14.5V18.5H69.5L79 24.5L78 31L83 27L92 31.5L93.5 34L96.5 32.5L97 29L93.5 28.5L85.5 23L87 15.5Z" fill="#5A5A5A" stroke="black" stroke-linejoin="round"/>
<path d="M78.0063 30.9688L77.031 32.5005" stroke="black" stroke-linecap="square" stroke-linejoin="round"/>
<path d="M81.5843 24.7965C82.3508 25.1965 83.3058 24.9053 83.7172 24.1459C84.1285 23.3865 83.8406 22.4467 83.074 22.0466C82.3074 21.6466 81.3525 21.9378 80.9411 22.6972C80.5297 23.4566 80.8177 24.3965 81.5843 24.7965Z" fill="black" fill-opacity="0.9" stroke="black"/>
<path d="M82.3498 24.2255C82.7935 24.2255 83.1532 23.8725 83.1532 23.437C83.1532 23.0015 82.7935 22.6484 82.3498 22.6484C81.9061 22.6484 81.5464 23.0015 81.5464 23.437C81.5464 23.8725 81.9061 24.2255 82.3498 24.2255Z" fill="#878787" stroke="#363636"/>
<path d="M99.034 36.8543C75.6274 32.8918 70.456 31.7942 56.8076 27.6867C56.7426 27.6673 56.6705 27.6668 56.6053 27.6859C43.2127 31.6171 33.8648 33.6202 14.8463 36.8507C14.7048 36.8748 14.5901 36.9819 14.5652 37.1208C13.8808 40.9366 14.0687 46.4229 14.6078 57.2302C16.1432 75.0589 17.8286 81.7851 21.5328 90.9404C21.5438 90.9678 21.5589 90.9943 21.5768 91.0179C31.8191 104.546 39.6476 110.523 56.5513 118.722C56.6477 118.769 56.7648 118.768 56.861 118.721C74.1022 110.292 81.8655 104.175 92.1677 91.0217C92.188 90.9957 92.205 90.9659 92.2169 90.9352C96.0511 81.0586 97.921 74.6502 99.2524 57.2302C99.8044 45.9017 100.039 39.9532 99.308 37.0955C99.2756 36.9694 99.1647 36.8764 99.034 36.8543Z" fill="#3A3A3A" stroke="black" stroke-linecap="round" stroke-linejoin="round"/>
<path d="M95.4845 40.8768C95.4356 40.6847 95.2779 40.5397 95.0824 40.5071C74.153 37.0102 69.3411 36.1437 57.1793 32.5331C57.164 32.5272 57.1482 32.5221 57.1321 32.5176L57.1317 32.519L57.1321 32.5176L57.132 32.5176L57.1319 32.5176L57.1317 32.5175L57.131 32.5173L57.1285 32.5167L57.1205 32.5145L57.0963 32.5082L57.085 32.5054C57.0849 32.5054 57.0682 32.5014 57.0478 32.4982C57.0419 32.4973 57.0282 32.4952 57.0107 32.4938C57.002 32.4931 56.9867 32.4921 56.9677 32.4922C56.9535 32.4923 56.913 32.4928 56.8627 32.5039C56.8372 32.5095 56.7914 32.5216 56.739 32.5489C56.7321 32.5525 56.7246 32.5566 56.7164 32.5614C44.8277 35.9987 36.3657 37.6654 19.4173 40.5069C19.2091 40.5418 19.0453 40.7037 19.0079 40.9115C18.3901 44.3463 18.1948 49.4165 18.677 58.9558C18.6773 58.9619 18.6777 58.968 18.6782 58.974C20.0574 74.7797 21.6935 81.0323 25.0374 89.1896C25.0542 89.2306 25.0763 89.2692 25.1033 89.3044C29.7096 95.3084 33.8297 99.6559 38.7092 103.414C43.5851 107.168 49.2019 110.321 56.7841 113.951C56.9211 114.017 57.0805 114.016 57.2173 113.95C64.9608 110.213 70.4411 106.85 75.148 102.951C79.8536 99.0539 83.7685 94.6356 88.3916 88.8111C88.4224 88.7724 88.4472 88.7293 88.4653 88.6833C88.6567 88.1967 88.845 87.7203 89.0302 87.2517C92.1775 79.2895 94.4302 73.5905 95.5626 58.9692L95.5628 58.9692L95.5635 58.9552C95.81 53.9612 95.9563 50.103 95.9596 47.1731C95.9628 44.2556 95.8251 42.2134 95.4845 40.8768Z" fill="#939393" stroke="black" stroke-linecap="round" stroke-linejoin="round"/>
<path d="M92 43.0664C72.3645 39.7429 68.4532 38.5119 57 35.0664C45.7603 38.3642 36.9529 40.3167 21 43.0264C20.4326 46.2315 20.591 50.8411 21.0424 59.8881C22.3326 74.8659 23.8883 80.8748 27 88.5651C35.6021 99.923 42.3951 104.618 56.584 111.501C71.0561 104.425 77.6273 99.2463 86.2794 88.204C89.5002 79.9088 91.0713 74.5223 92.1903 59.8881C92.652 50.4124 92.6043 45.4808 92 43.0664Z" fill="#02249E" stroke="black" stroke-linecap="round" stroke-linejoin="round"/>
<path d="M56.8454 109.392V37.3203C44.1973 41.4317 36.8644 43.3035 23.3967 44.6977C23.0953 60.7144 24.6556 70.3053 29.5047 88.1111C40.1348 99.8007 46.1237 104.275 56.8454 109.392Z" fill="white" fill-opacity="0.44"/>
<path d="M16.6555 40.59C17.4161 40.59 18.0327 39.9848 18.0327 39.2383C18.0327 38.4919 17.4161 37.8867 16.6555 37.8867C15.8949 37.8867 15.2784 38.4919 15.2784 39.2383C15.2784 39.9848 15.8949 40.59 16.6555 40.59Z" fill="#3A3A3A" stroke="black"/>
<path d="M16.5699 40.1573V39.2287L17.0103 38.4072C16.433 38.1234 15.7164 38.6137 15.7164 39.1812C15.7164 39.7487 16.1643 40.1573 16.5699 40.1573Z" fill="#747474"/>
<path d="M89.9751 91.6642C90.7357 91.6642 91.3522 91.059 91.3522 90.3126C91.3522 89.5661 90.7357 88.9609 89.9751 88.9609C89.2145 88.9609 88.5979 89.5661 88.5979 90.3126C88.5979 91.059 89.2145 91.6642 89.9751 91.6642Z" fill="#3A3A3A" stroke="black"/>
<path d="M89.8895 91.2315V90.3029L90.3299 89.4814C89.7526 89.1976 89.036 89.6879 89.036 90.2554C89.036 90.8229 89.4839 91.2315 89.8895 91.2315Z" fill="#747474"/>
<path d="M23.5833 91.6642C24.3439 91.6642 24.9605 91.059 24.9605 90.3126C24.9605 89.5661 24.3439 88.9609 23.5833 88.9609C22.8227 88.9609 22.2062 89.5661 22.2062 90.3126C22.2062 91.059 22.8227 91.6642 23.5833 91.6642Z" fill="#3A3A3A" stroke="black"/>
<path d="M23.4977 91.2315V90.3029L23.9382 89.4814C23.3609 89.1976 22.6443 89.6879 22.6443 90.2554C22.6443 90.8229 23.0921 91.2315 23.4977 91.2315Z" fill="#747474"/>
<path d="M96.9029 40.59C97.6635 40.59 98.2801 39.9848 98.2801 39.2383C98.2801 38.4919 97.6635 37.8867 96.9029 37.8867C96.1424 37.8867 95.5258 38.4919 95.5258 39.2383C95.5258 39.9848 96.1424 40.59 96.9029 40.59Z" fill="#3A3A3A" stroke="black"/>
<path d="M96.8173 40.1573V39.2287L97.2578 38.4072C96.6805 38.1234 95.9638 38.6137 95.9638 39.1812C95.9638 39.7487 96.4117 40.1573 96.8173 40.1573Z" fill="#747474"/>
<path d="M56.4906 117.201C57.2511 117.201 57.8677 116.596 57.8677 115.85C57.8677 115.103 57.2511 114.498 56.4906 114.498C55.73 114.498 55.1134 115.103 55.1134 115.85C55.1134 116.596 55.73 117.201 56.4906 117.201Z" fill="#3A3A3A" stroke="black"/>
<path d="M56.4049 116.769V115.84L56.8454 115.018C56.2681 114.735 55.5515 115.225 55.5515 115.792C55.5515 116.36 55.9993 116.769 56.4049 116.769Z" fill="#747474"/>
<path d="M56.4906 31.5099C57.2511 31.5099 57.8677 30.9047 57.8677 30.1583C57.8677 29.4118 57.2511 28.8066 56.4906 28.8066C55.73 28.8066 55.1134 29.4118 55.1134 30.1583C55.1134 30.9047 55.73 31.5099 56.4906 31.5099Z" fill="#3A3A3A" stroke="black"/>
<path d="M56.4049 31.0772V30.1486L56.8454 29.3271C56.2681 29.0433 55.5515 29.5336 55.5515 30.1011C55.5515 30.6686 55.9993 31.0772 56.4049 31.0772Z" fill="#747474"/>
<path d="M60.3093 81.0171L56.8454 83.2871L53.3814 81.0171L16.7216 78.1797H99.2783L60.3093 81.0171Z" fill="#1D1D1D" stroke="black"/>
<path d="M60.3093 65.6958L56.8454 63.4258L53.3814 65.6958L15.2784 68.5332H99.567L60.3093 65.6958Z" fill="#1D1D1D" stroke="black"/>
<path d="M114 68.5332H2L5.82152 73.2107L9.64304 78.1806H104.548L114 68.5332Z" fill="#EEEEEE" stroke="black"/>
<path d="M27.2339 71.5703H26.1777V76H24.7354V70.4629H27.2339V71.5703ZM30.105 70.4663L30.9287 76H29.4556L29.3838 75.0054H28.8677L28.7822 76H27.292L28.0234 70.4663H30.105ZM29.3428 74.0244C29.2699 73.3978 29.1969 72.6242 29.124 71.7036C28.9782 72.7609 28.887 73.5345 28.8506 74.0244H29.3428ZM31.1748 70.4663H32.624C33.016 70.4663 33.3167 70.4971 33.5264 70.5586C33.7383 70.6201 33.8966 70.709 34.0015 70.8252C34.1086 70.9414 34.1803 71.0827 34.2168 71.249C34.2555 71.4131 34.2749 71.6683 34.2749 72.0146V72.4966C34.2749 72.8498 34.2384 73.1073 34.1655 73.269C34.0926 73.4308 33.9582 73.555 33.7622 73.6416C33.5685 73.7282 33.3145 73.7715 33 73.7715H32.6138V76H31.1748V70.4663ZM32.6138 71.4131V72.8213C32.6548 72.8236 32.6901 72.8247 32.7197 72.8247C32.8519 72.8247 32.943 72.7928 32.9932 72.729C33.0456 72.6629 33.0718 72.5273 33.0718 72.3223V71.8677C33.0718 71.6785 33.0422 71.5555 32.9829 71.4985C32.9237 71.4416 32.8006 71.4131 32.6138 71.4131ZM37.1733 70.4663L37.9971 76H36.5239L36.4521 75.0054H35.936L35.8506 76H34.3604L35.0918 70.4663H37.1733ZM36.4111 74.0244C36.3382 73.3978 36.2653 72.6242 36.1924 71.7036C36.0465 72.7609 35.9554 73.5345 35.9189 74.0244H36.4111ZM41.5518 70.4663V76H40.1128V73.6758H39.6821V76H38.2432V70.4663H39.6821V72.4453H40.1128V70.4663H41.5518ZM45.0312 70.4663V71.5737H44.1768V76H42.7378V71.5737H41.8867V70.4663H45.0312ZM49.9497 74.7046C49.9497 75.117 49.8962 75.4132 49.7891 75.5933C49.682 75.7733 49.519 75.8861 49.3003 75.9316C49.0838 75.9772 48.7375 76 48.2612 76H46.5967V70.4629H49.4165V71.4233H48.0391V72.3599H48.2612C48.7056 72.3599 49.0417 72.3861 49.2695 72.4385C49.4974 72.4909 49.6672 72.6071 49.7788 72.7871C49.8927 72.9648 49.9497 73.2451 49.9497 73.6279V74.7046ZM48.5073 74.5371V73.7373C48.5073 73.5049 48.4834 73.3636 48.4355 73.3135C48.39 73.2633 48.2578 73.2349 48.0391 73.228V75.0464C48.2214 75.0464 48.3444 75.0236 48.4082 74.978C48.4743 74.9302 48.5073 74.7832 48.5073 74.5371ZM50.459 70.4663H52.8584V71.5737H51.8979V72.623H52.7969V73.6758H51.8979V74.8926H52.9541V76H50.459V70.4663ZM55.9243 72.8657C56.134 72.9364 56.29 73.0526 56.3926 73.2144C56.4951 73.3739 56.5464 73.7498 56.5464 74.3423C56.5464 74.7821 56.4963 75.1239 56.396 75.3677C56.2957 75.6092 56.1226 75.7938 55.8765 75.9214C55.6304 76.0467 55.3148 76.1094 54.9297 76.1094C54.4922 76.1094 54.1481 76.0365 53.8975 75.8906C53.6491 75.7425 53.485 75.5625 53.4053 75.3506C53.3278 75.1364 53.2891 74.7661 53.2891 74.2397V73.8022H54.6699V74.7012C54.6699 74.9404 54.6836 75.0931 54.7109 75.1592C54.7406 75.223 54.8044 75.2549 54.9023 75.2549C55.0094 75.2549 55.0801 75.2139 55.1143 75.1318C55.1484 75.0498 55.1655 74.8356 55.1655 74.4893V74.1064C55.1655 73.8945 55.1416 73.7396 55.0938 73.6416C55.0459 73.5436 54.9753 73.4798 54.8818 73.4502C54.7884 73.4183 54.6073 73.4001 54.3384 73.3955V72.5923C54.6665 72.5923 54.8693 72.5798 54.9468 72.5547C55.0243 72.5296 55.0801 72.4749 55.1143 72.3906C55.1484 72.3063 55.1655 72.1742 55.1655 71.9941V71.6865C55.1655 71.4928 55.145 71.3652 55.104 71.3037C55.0653 71.2422 55.0037 71.2114 54.9194 71.2114C54.8237 71.2114 54.7576 71.2445 54.7212 71.3105C54.687 71.3743 54.6699 71.5122 54.6699 71.7241V72.1787H53.2891V71.707C53.2891 71.1784 53.4098 70.8218 53.6514 70.6372C53.8929 70.4504 54.2769 70.3569 54.8032 70.3569C55.4618 70.3569 55.9084 70.4857 56.1431 70.7432C56.3778 71.0007 56.4951 71.3584 56.4951 71.8164C56.4951 72.1263 56.453 72.3507 56.3687 72.4897C56.2843 72.6265 56.1362 72.7518 55.9243 72.8657ZM60.3711 73.7065C60.3711 74.2625 60.3574 74.6567 60.3301 74.8892C60.305 75.1193 60.223 75.3301 60.084 75.5215C59.9473 75.7129 59.7616 75.8599 59.5269 75.9624C59.2922 76.0649 59.0187 76.1162 58.7065 76.1162C58.4103 76.1162 58.1437 76.0684 57.9067 75.9727C57.672 75.8747 57.4829 75.7288 57.3394 75.5352C57.1958 75.3415 57.1104 75.1307 57.083 74.9028C57.0557 74.675 57.042 74.2762 57.042 73.7065V72.7598C57.042 72.2038 57.0545 71.8107 57.0796 71.5806C57.1069 71.3481 57.189 71.1362 57.3257 70.9448C57.4647 70.7534 57.6515 70.6064 57.8862 70.5039C58.1209 70.4014 58.3944 70.3501 58.7065 70.3501C59.0028 70.3501 59.2682 70.3991 59.5029 70.4971C59.7399 70.5928 59.9302 70.7375 60.0737 70.9312C60.2173 71.1248 60.3027 71.3356 60.3301 71.5635C60.3574 71.7913 60.3711 72.1901 60.3711 72.7598V73.7065ZM58.9321 71.8882C58.9321 71.6307 58.9173 71.4666 58.8877 71.396C58.8604 71.3231 58.8022 71.2866 58.7134 71.2866C58.6382 71.2866 58.5801 71.3162 58.5391 71.3755C58.5003 71.4325 58.481 71.6034 58.481 71.8882V74.4722C58.481 74.7935 58.4935 74.9917 58.5186 75.0669C58.5459 75.1421 58.6074 75.1797 58.7031 75.1797C58.8011 75.1797 58.8638 75.1364 58.8911 75.0498C58.9185 74.9632 58.9321 74.757 58.9321 74.4312V71.8882ZM64.2231 76H62.7808V71.5703H62.3535V76H60.9111V70.4629H64.2231V76ZM67.2856 70.4663L68.1094 76H66.6362L66.5645 75.0054H66.0483L65.9629 76H64.4727L65.2041 70.4663H67.2856ZM66.5234 74.0244C66.4505 73.3978 66.3776 72.6242 66.3047 71.7036C66.1589 72.7609 66.0677 73.5345 66.0312 74.0244H66.5234ZM71.7153 72.8794H70.2764V71.9155C70.2764 71.6353 70.2604 71.4609 70.2285 71.3926C70.1989 71.3219 70.1317 71.2866 70.0269 71.2866C69.9084 71.2866 69.8332 71.3288 69.8013 71.4131C69.7694 71.4974 69.7534 71.6797 69.7534 71.96V74.5303C69.7534 74.7992 69.7694 74.9746 69.8013 75.0566C69.8332 75.1387 69.9049 75.1797 70.0166 75.1797C70.1237 75.1797 70.1932 75.1387 70.2251 75.0566C70.2593 74.9746 70.2764 74.7821 70.2764 74.479V73.7852H71.7153V74.0005C71.7153 74.5724 71.6743 74.978 71.5923 75.2173C71.5125 75.4565 71.3337 75.6662 71.0557 75.8462C70.7799 76.0262 70.4393 76.1162 70.0337 76.1162C69.6121 76.1162 69.2646 76.0399 68.9912 75.8872C68.7178 75.7345 68.5366 75.5238 68.4478 75.2549C68.3589 74.9837 68.3145 74.577 68.3145 74.0347V72.418C68.3145 72.0192 68.3281 71.7207 68.3555 71.5225C68.3828 71.3219 68.4637 71.1294 68.5981 70.9448C68.7349 70.7603 68.9229 70.6156 69.1621 70.5107C69.4036 70.4036 69.6805 70.3501 69.9927 70.3501C70.4165 70.3501 70.7663 70.4321 71.042 70.5962C71.3177 70.7603 71.4989 70.9653 71.5854 71.2114C71.672 71.4552 71.7153 71.8358 71.7153 72.353V72.8794ZM75.54 70.4663V76H74.1011V73.6758H73.6704V76H72.2314V70.4663H73.6704V72.4453H74.1011V70.4663H75.54ZM79.4092 73.7065C79.4092 74.2625 79.3955 74.6567 79.3682 74.8892C79.3431 75.1193 79.2611 75.3301 79.1221 75.5215C78.9854 75.7129 78.7996 75.8599 78.5649 75.9624C78.3302 76.0649 78.0568 76.1162 77.7446 76.1162C77.4484 76.1162 77.1818 76.0684 76.9448 75.9727C76.7101 75.8747 76.521 75.7288 76.3774 75.5352C76.2339 75.3415 76.1484 75.1307 76.1211 74.9028C76.0938 74.675 76.0801 74.2762 76.0801 73.7065V72.7598C76.0801 72.2038 76.0926 71.8107 76.1177 71.5806C76.145 71.3481 76.2271 71.1362 76.3638 70.9448C76.5028 70.7534 76.6896 70.6064 76.9243 70.5039C77.159 70.4014 77.4325 70.3501 77.7446 70.3501C78.0409 70.3501 78.3063 70.3991 78.541 70.4971C78.778 70.5928 78.9683 70.7375 79.1118 70.9312C79.2554 71.1248 79.3408 71.3356 79.3682 71.5635C79.3955 71.7913 79.4092 72.1901 79.4092 72.7598V73.7065ZM77.9702 71.8882C77.9702 71.6307 77.9554 71.4666 77.9258 71.396C77.8984 71.3231 77.8403 71.2866 77.7515 71.2866C77.6763 71.2866 77.6182 71.3162 77.5771 71.3755C77.5384 71.4325 77.519 71.6034 77.519 71.8882V74.4722C77.519 74.7935 77.5316 74.9917 77.5566 75.0669C77.584 75.1421 77.6455 75.1797 77.7412 75.1797C77.8392 75.1797 77.9019 75.1364 77.9292 75.0498C77.9565 74.9632 77.9702 74.757 77.9702 74.4312V71.8882ZM83.3091 72.8794H81.8701V71.9155C81.8701 71.6353 81.8542 71.4609 81.8223 71.3926C81.7926 71.3219 81.7254 71.2866 81.6206 71.2866C81.5021 71.2866 81.4269 71.3288 81.395 71.4131C81.3631 71.4974 81.3472 71.6797 81.3472 71.96V74.5303C81.3472 74.7992 81.3631 74.9746 81.395 75.0566C81.4269 75.1387 81.4987 75.1797 81.6104 75.1797C81.7174 75.1797 81.7869 75.1387 81.8188 75.0566C81.853 74.9746 81.8701 74.7821 81.8701 74.479V73.7852H83.3091V74.0005C83.3091 74.5724 83.2681 74.978 83.186 75.2173C83.1063 75.4565 82.9274 75.6662 82.6494 75.8462C82.3737 76.0262 82.033 76.1162 81.6274 76.1162C81.2059 76.1162 80.8584 76.0399 80.585 75.8872C80.3115 75.7345 80.1304 75.5238 80.0415 75.2549C79.9526 74.9837 79.9082 74.577 79.9082 74.0347V72.418C79.9082 72.0192 79.9219 71.7207 79.9492 71.5225C79.9766 71.3219 80.0575 71.1294 80.1919 70.9448C80.3286 70.7603 80.5166 70.6156 80.7559 70.5107C80.9974 70.4036 81.2743 70.3501 81.5864 70.3501C82.0103 70.3501 82.36 70.4321 82.6357 70.5962C82.9115 70.7603 83.0926 70.9653 83.1792 71.2114C83.2658 71.4552 83.3091 71.8358 83.3091 72.353V72.8794ZM86.7236 70.4663V71.5737H85.8691V76H84.4302V71.5737H83.5791V70.4663H86.7236ZM90.2646 76H89.0615V73.481L88.313 76H87.0518V70.4629H88.2549V72.9614L89.0615 70.4629H90.2646V76Z" fill="black" fill-opacity="0.9"/>
<path d="M100.919 71.5742L111.113 71.6518" stroke="black"/>
<path d="M94.8577 78.0605H104.61" stroke="black"/>
<path d="M98.032 74.6562H107.938" stroke="black"/>
<path d="M94.8567 78.1077L103.805 68.46" stroke="black"/>
<path d="M13.2577 71.3691H4.30927" stroke="black"/>
<path d="M25.3198 78.1777H13.5464" stroke="black"/>
<path d="M16.1443 74.7734H6.9072" stroke="black"/>
<path d="M19.0309 78.1777L10.9484 68.5303" stroke="black"/>
</svg>
