<svg width="29" height="27" viewBox="0 0 29 27" fill="none" xmlns="http://www.w3.org/2000/svg">
<path d="M26.9046 0.0154426C26.439 -0.0356526 25.933 0.0395708 25.425 0.24821C24.7946 0.505105 14.9212 4.81627 5.71656 8.83789L2.67524 10.1664C1.49782 10.6617 0.902954 11.4679 0.902954 12.5536C0.902954 13.3137 1.21269 14.3448 2.69165 14.9523L7.82525 17.0869C8.269 18.4693 9.3001 21.6784 9.55924 22.5314C9.71308 23.0374 10.1021 24.3112 11.0854 24.6093C11.2871 24.6803 11.4977 24.7172 11.7117 24.7172C12.3318 24.7172 12.779 24.4177 12.9971 24.2431L16.26 21.3789L20.223 25.1827C20.3755 25.3438 21.1837 26.1592 22.2688 26.1592C23.6226 26.1592 24.6503 24.989 24.8643 23.8571C24.9806 23.2368 28.8027 3.32244 28.8027 3.32528C29.146 1.72784 28.5292 0.899674 28.1326 0.546265C27.7928 0.244662 27.3703 0.0665379 26.9046 0.0154426ZM25.9775 3.15496C25.4496 5.90204 22.5717 20.8957 22.1348 23.0566L16.342 17.4957L12.4118 20.9503L13.5004 16.5306C13.5004 16.5306 21.0093 8.64131 21.462 8.18217C21.8257 7.81457 21.9023 7.68541 21.9023 7.55767C21.9023 7.38735 21.8182 7.26529 21.6233 7.26529C21.4483 7.26529 21.2104 7.43916 21.0845 7.52077C19.4832 8.55687 12.6662 12.5877 9.31035 14.5691L4.44205 12.5508L6.80509 11.5204C12.8248 8.88969 23.5467 4.20454 25.9775 3.15496Z" fill="white" fill-opacity="0.6"/>
</svg>
