<svg width="50" height="66" viewBox="0 0 50 66" fill="none" xmlns="http://www.w3.org/2000/svg">
<path d="M14.5 35.487C20.7031 30.2835 22.69 25.4372 23.5 17.2316C27.9625 16.2372 30.5 17.6747 31.5 20.7915C31.8003 22.9305 33 26.5798 30.5212 30.5871C29 33.0462 29 35.487 29 35.487M14.5 35.487C13.9919 33.851 13.5873 33.0451 11.5 32.8155H2V59.9759H11.5C13.1478 59.6676 13.743 58.379 14.5 55.0781M14.5 35.487V55.0781M26 35.487H29M14.5 55.0781C15.1099 58.6101 15.8821 60.1376 18.5 61.7549C26 63.6714 27.5 65.4524 38.5 62.2C43.8043 60.6316 46.5 56.3297 41 55.0781C47 56.4435 51 49.4233 41 48.5328C48 49.7016 52 42.7445 41 41.854C48.5 40.9635 45.5 34.73 38.5 35.1753L29 35.487" stroke="#02249E" stroke-width="3" stroke-linejoin="round"/>
<line x1="1.5" y1="-1.5" x2="9.82399" y2="-1.5" transform="matrix(0.706464 0.707748 -0.784087 0.620651 7 8.9043)" stroke="#02249E" stroke-width="3" stroke-linecap="round"/>
<line x1="26.5" y1="1.5" x2="26.5" y2="10.9671" stroke="#02249E" stroke-width="3" stroke-linecap="round"/>
<line x1="1.5" y1="-1.5" x2="12.9303" y2="-1.5" transform="matrix(-0.831585 0.555398 -0.644187 -0.764868 47 6.23438)" stroke="#02249E" stroke-width="3" stroke-linecap="round"/>
</svg>
