<svg width="81" height="68" viewBox="0 0 81 68" fill="none" xmlns="http://www.w3.org/2000/svg">
<path d="M36.5 11.181C37.9657 21.7899 37.4458 22.6605 35.321 29.0191C35.2217 29.316 35.0538 29.5891 34.8319 29.8098L31.4548 33.1693C30.3308 34.2875 30.8948 36.2095 32.4254 36.6232C37.7807 38.0708 39.7343 39.5143 43.0055 41.9437C43.1029 42.016 43.1954 42.098 43.2768 42.1879C46.7256 46.0005 47.4627 51.6659 47.4997 64.032C47.503 65.1347 46.6074 66.0327 45.5047 66.0327H4.0839C2.94711 66.0327 2.03853 65.0838 2.08617 63.948C2.56393 52.5564 3.03119 45.9426 7.1371 42.0534C10.5824 39.0536 12.302 37.2254 17.8017 36.2563C19.4175 35.9716 20.2019 34.022 19.1183 32.79L16.4661 29.7747C16.2915 29.5763 16.1574 29.3446 16.0742 29.0937C14.2501 23.5874 13.5779 18.9946 13.9056 15.5319M36.5 11.181C35.4702 9.00373 35.9923 5.0952 29.0017 2.58686C28.9009 2.55069 28.7938 2.52219 28.6881 2.50456C21.8984 1.37129 14.4775 5.03678 11.586 5.03711C8.67208 5.03743 11.586 5.38801 12.086 8.5371C12.586 11.6862 13.9056 15.5319 13.9056 15.5319M36.5 11.181C34.5114 12.7186 32.4597 12.1185 28.9033 11.3441C28.4134 11.2375 27.901 11.323 27.4735 11.585C25.6404 12.7083 24.3693 13.5474 22.4603 13.3729C21.8477 13.3169 21.2244 13.447 20.709 13.7828C16.5909 16.4658 14.4652 13.1838 13.9056 15.5319M13.9056 15.5319C13.9294 15.2805 13.8703 15.7795 13.9056 15.5319Z" stroke="#02249E" stroke-width="3" stroke-linejoin="round"/>
<path d="M71.5 34.0355C73.9387 27.7059 75.8175 22.5741 72.1502 13.4057C72.0533 13.1634 72.004 12.9018 71.9863 12.6414C71.7875 9.72901 69.4445 5.71299 65.7726 4.61071C65.593 4.55681 65.4149 4.48452 65.2526 4.39056C59.1773 0.871803 56.6305 1.40299 50.6754 4.8999C50.5248 4.98836 50.3588 5.0585 50.1916 5.10909C46.0557 6.36058 44.5702 9.25207 44.9328 12.5444C44.9684 12.8677 44.9442 13.2001 44.843 13.5091C42.0466 22.0496 42.5823 26.2614 46.6729 33.0343M46.6729 33.0343C48.4007 32.2971 50.4036 31.7428 52.9179 31.2463C54.6401 30.9062 55.2225 28.687 53.8399 27.6053L50.9185 25.3194C50.6102 25.0781 50.3774 24.7512 50.2599 24.3778C49.238 21.1315 49.1243 18.8881 49.0267 16.6429C49.0094 16.2467 49.1098 15.8541 49.3155 15.5151L51.5002 11.9134C52.0583 10.9935 53.2874 10.6835 54.3631 10.66C55.2679 10.6402 56.3947 10.4069 57.8248 9.94305C58.5492 9.70813 59.337 9.88395 59.9385 10.351C60.7335 10.9684 61.4096 11.2864 62.0115 11.3579C63.4143 11.5245 65.235 11.3896 65.9123 12.6293L67.3067 15.1814C67.4343 15.4149 67.514 15.6721 67.5414 15.9368C67.8673 19.0891 68.0932 21.2479 67.1023 24.4964C67.0113 24.7947 66.8438 25.0646 66.6236 25.2855L64.0345 27.8817C62.9185 29.0008 63.4819 30.9129 65.0106 31.3139C69.7297 32.5517 72.2691 33.8057 75.0678 35.8791C75.1654 35.9514 75.2569 36.0333 75.3378 36.1238C78.3046 39.4443 78.9568 44.3681 78.9979 55.0332C79.0021 56.136 78.1064 57.0317 77.0037 57.0317H54.2088C53.2795 57.0317 52.4727 56.3916 52.2613 55.4868L49.0868 41.903C49.0294 41.6576 48.9277 41.4267 48.7717 41.2287C48.2596 40.5785 46.8888 38.9874 44.6895 37.5012C43.4879 36.6892 43.2414 34.9079 44.481 34.1551C45.1701 33.7366 45.8935 33.3669 46.6729 33.0343Z" stroke="#02249E" stroke-width="3" stroke-linejoin="round"/>
</svg>
