<svg width="200" height="38" viewBox="0 0 200 38" fill="none" xmlns="http://www.w3.org/2000/svg">
<path d="M104.041 32.8857L97.9794 37L91.9175 32.8857L27.7629 27.7428H172.237L104.041 32.8857Z" fill="#02249E" stroke="black"/>
<path d="M104.041 5.11429L97.9794 1L91.9175 5.11429L25.2371 10.2572H172.742L104.041 5.11429Z" fill="#02249E" stroke="black"/>
<path d="M198 10.2578H2L8.68766 18.7357L15.3753 27.7435H181.459L198 10.2578Z" fill="#EEEEEE" stroke="black"/>
<path d="M49.6307 15.5488H47.8201V23.1426H45.3475V13.6504H49.6307V15.5488ZM54.5526 13.6562L55.9647 23.1426H53.4393L53.3162 21.4375H52.4315L52.285 23.1426H49.7303L50.9842 13.6562H54.5526ZM53.2459 19.7559C53.1209 18.6816 52.9959 17.3555 52.8709 15.7773C52.6209 17.5898 52.4647 18.916 52.4022 19.7559H53.2459ZM56.3865 13.6562H58.8709C59.5428 13.6562 60.0584 13.709 60.4178 13.8145C60.7811 13.9199 61.0526 14.0723 61.2323 14.2715C61.4158 14.4707 61.5389 14.7129 61.6014 14.998C61.6678 15.2793 61.701 15.7168 61.701 16.3105V17.1367C61.701 17.7422 61.6385 18.1836 61.5135 18.4609C61.3885 18.7383 61.158 18.9512 60.8221 19.0996C60.4901 19.248 60.0545 19.3223 59.5155 19.3223H58.8533V23.1426H56.3865V13.6562ZM58.8533 15.2793V17.6934C58.9237 17.6973 58.9842 17.6992 59.035 17.6992C59.2615 17.6992 59.4178 17.6445 59.5037 17.5352C59.5936 17.4219 59.6385 17.1895 59.6385 16.8379V16.0586C59.6385 15.7344 59.5877 15.5234 59.4862 15.4258C59.3846 15.3281 59.1737 15.2793 58.8533 15.2793ZM66.6698 13.6562L68.0819 23.1426H65.5565L65.4334 21.4375H64.5487L64.4022 23.1426H61.8475L63.1014 13.6562H66.6698ZM65.3631 19.7559C65.2381 18.6816 65.1131 17.3555 64.9881 15.7773C64.7381 17.5898 64.5819 18.916 64.5194 19.7559H65.3631ZM74.1756 13.6562V23.1426H71.7088V19.1582H70.9705V23.1426H68.5037V13.6562H70.9705V17.0488H71.7088V13.6562H74.1756ZM80.1405 13.6562V15.5547H78.6756V23.1426H76.2088V15.5547H74.7498V13.6562H80.1405ZM88.5721 20.9219C88.5721 21.6289 88.4803 22.1367 88.2967 22.4453C88.1131 22.7539 87.8338 22.9473 87.4588 23.0254C87.0877 23.1035 86.494 23.1426 85.6776 23.1426H82.824V13.6504H87.658V15.2969H85.2967V16.9023H85.6776C86.4393 16.9023 87.0155 16.9473 87.4061 17.0371C87.7967 17.127 88.0877 17.3262 88.2791 17.6348C88.4744 17.9395 88.5721 18.4199 88.5721 19.0762V20.9219ZM86.0994 20.6348V19.2637C86.0994 18.8652 86.0584 18.623 85.9764 18.5371C85.8983 18.4512 85.6717 18.4023 85.2967 18.3906V21.5078C85.6092 21.5078 85.8201 21.4688 85.9295 21.3906C86.0428 21.3086 86.0994 21.0566 86.0994 20.6348ZM89.4451 13.6562H93.5584V15.5547H91.9119V17.3535H93.453V19.1582H91.9119V21.2441H93.7225V23.1426H89.4451V13.6562ZM98.8143 17.7695C99.1737 17.8906 99.4412 18.0898 99.617 18.3672C99.7928 18.6406 99.8807 19.2852 99.8807 20.3008C99.8807 21.0547 99.7948 21.6406 99.6229 22.0586C99.451 22.4727 99.1541 22.7891 98.7323 23.0078C98.3104 23.2227 97.7694 23.3301 97.1092 23.3301C96.3592 23.3301 95.7694 23.2051 95.3397 22.9551C94.9139 22.7012 94.6326 22.3926 94.4959 22.0293C94.3631 21.6621 94.2967 21.0273 94.2967 20.125V19.375H96.6639V20.916C96.6639 21.3262 96.6873 21.5879 96.7342 21.7012C96.785 21.8105 96.8944 21.8652 97.0623 21.8652C97.2459 21.8652 97.367 21.7949 97.4256 21.6543C97.4842 21.5137 97.5135 21.1465 97.5135 20.5527V19.8965C97.5135 19.5332 97.4725 19.2676 97.3905 19.0996C97.3084 18.9316 97.1873 18.8223 97.0272 18.7715C96.867 18.7168 96.5565 18.6855 96.0955 18.6777V17.3008C96.658 17.3008 97.0057 17.2793 97.1385 17.2363C97.2713 17.1934 97.367 17.0996 97.4256 16.9551C97.4842 16.8105 97.5135 16.584 97.5135 16.2754V15.748C97.5135 15.416 97.4783 15.1973 97.408 15.0918C97.3416 14.9863 97.2362 14.9336 97.0916 14.9336C96.9276 14.9336 96.8143 14.9902 96.7518 15.1035C96.6932 15.2129 96.6639 15.4492 96.6639 15.8125V16.5918H94.2967V15.7832C94.2967 14.877 94.5037 14.2656 94.9178 13.9492C95.3319 13.6289 95.9901 13.4688 96.8924 13.4688C98.0213 13.4688 98.7869 13.6895 99.1893 14.1309C99.5916 14.5723 99.7928 15.1855 99.7928 15.9707C99.7928 16.502 99.7205 16.8867 99.576 17.125C99.4315 17.3594 99.1776 17.5742 98.8143 17.7695ZM106.437 19.2109C106.437 20.1641 106.414 20.8398 106.367 21.2383C106.324 21.6328 106.183 21.9941 105.945 22.3223C105.711 22.6504 105.392 22.9023 104.99 23.0781C104.588 23.2539 104.119 23.3418 103.584 23.3418C103.076 23.3418 102.619 23.2598 102.213 23.0957C101.81 22.9277 101.486 22.6777 101.24 22.3457C100.994 22.0137 100.847 21.6523 100.801 21.2617C100.754 20.8711 100.73 20.1875 100.73 19.2109V17.5879C100.73 16.6348 100.752 15.9609 100.795 15.5664C100.842 15.168 100.982 14.8047 101.217 14.4766C101.455 14.1484 101.775 13.8965 102.178 13.7207C102.58 13.5449 103.049 13.457 103.584 13.457C104.092 13.457 104.547 13.541 104.949 13.709C105.355 13.873 105.681 14.1211 105.928 14.4531C106.174 14.7852 106.32 15.1465 106.367 15.5371C106.414 15.9277 106.437 16.6113 106.437 17.5879V19.2109ZM103.971 16.0938C103.971 15.6523 103.945 15.3711 103.894 15.25C103.847 15.125 103.748 15.0625 103.596 15.0625C103.467 15.0625 103.367 15.1133 103.297 15.2148C103.23 15.3125 103.197 15.6055 103.197 16.0938V20.5234C103.197 21.0742 103.219 21.4141 103.262 21.543C103.308 21.6719 103.414 21.7363 103.578 21.7363C103.746 21.7363 103.853 21.6621 103.9 21.5137C103.947 21.3652 103.971 21.0117 103.971 20.4531V16.0938ZM113.041 23.1426H110.568V15.5488H109.836V23.1426H107.363V13.6504H113.041V23.1426ZM118.291 13.6562L119.703 23.1426H117.178L117.055 21.4375H116.17L116.023 23.1426H113.469L114.722 13.6562H118.291ZM116.984 19.7559C116.859 18.6816 116.734 17.3555 116.609 15.7773C116.359 17.5898 116.203 18.916 116.14 19.7559H116.984ZM125.885 17.793H123.418V16.1406C123.418 15.6602 123.39 15.3613 123.336 15.2441C123.285 15.123 123.17 15.0625 122.99 15.0625C122.787 15.0625 122.658 15.1348 122.603 15.2793C122.549 15.4238 122.521 15.7363 122.521 16.2168V20.623C122.521 21.084 122.549 21.3848 122.603 21.5254C122.658 21.666 122.781 21.7363 122.972 21.7363C123.156 21.7363 123.275 21.666 123.33 21.5254C123.389 21.3848 123.418 21.0547 123.418 20.5352V19.3457H125.885V19.7148C125.885 20.6953 125.814 21.3906 125.674 21.8008C125.537 22.2109 125.23 22.5703 124.754 22.8789C124.281 23.1875 123.697 23.3418 123.002 23.3418C122.279 23.3418 121.683 23.2109 121.215 22.9492C120.746 22.6875 120.435 22.3262 120.283 21.8652C120.131 21.4004 120.055 20.7031 120.055 19.7734V17.002C120.055 16.3184 120.078 15.8066 120.125 15.4668C120.172 15.123 120.31 14.793 120.541 14.4766C120.775 14.1602 121.097 13.9121 121.508 13.7324C121.922 13.5488 122.396 13.457 122.931 13.457C123.658 13.457 124.258 13.5977 124.73 13.8789C125.203 14.1602 125.514 14.5117 125.662 14.9336C125.81 15.3516 125.885 16.0039 125.885 16.8906V17.793ZM132.441 13.6562V23.1426H129.974V19.1582H129.236V23.1426H126.769V13.6562H129.236V17.0488H129.974V13.6562H132.441ZM139.074 19.2109C139.074 20.1641 139.051 20.8398 139.004 21.2383C138.961 21.6328 138.82 21.9941 138.582 22.3223C138.347 22.6504 138.029 22.9023 137.627 23.0781C137.224 23.2539 136.756 23.3418 136.221 23.3418C135.713 23.3418 135.256 23.2598 134.849 23.0957C134.447 22.9277 134.123 22.6777 133.877 22.3457C133.631 22.0137 133.484 21.6523 133.437 21.2617C133.39 20.8711 133.367 20.1875 133.367 19.2109V17.5879C133.367 16.6348 133.389 15.9609 133.431 15.5664C133.478 15.168 133.619 14.8047 133.853 14.4766C134.092 14.1484 134.412 13.8965 134.814 13.7207C135.217 13.5449 135.685 13.457 136.221 13.457C136.728 13.457 137.183 13.541 137.586 13.709C137.992 13.873 138.318 14.1211 138.564 14.4531C138.81 14.7852 138.957 15.1465 139.004 15.5371C139.051 15.9277 139.074 16.6113 139.074 17.5879V19.2109ZM136.607 16.0938C136.607 15.6523 136.582 15.3711 136.531 15.25C136.484 15.125 136.385 15.0625 136.232 15.0625C136.103 15.0625 136.004 15.1133 135.933 15.2148C135.867 15.3125 135.834 15.6055 135.834 16.0938V20.5234C135.834 21.0742 135.855 21.4141 135.898 21.543C135.945 21.6719 136.051 21.7363 136.215 21.7363C136.383 21.7363 136.49 21.6621 136.537 21.5137C136.584 21.3652 136.607 21.0117 136.607 20.4531V16.0938ZM145.76 17.793H143.293V16.1406C143.293 15.6602 143.265 15.3613 143.211 15.2441C143.16 15.123 143.045 15.0625 142.865 15.0625C142.662 15.0625 142.533 15.1348 142.478 15.2793C142.424 15.4238 142.396 15.7363 142.396 16.2168V20.623C142.396 21.084 142.424 21.3848 142.478 21.5254C142.533 21.666 142.656 21.7363 142.847 21.7363C143.031 21.7363 143.15 21.666 143.205 21.5254C143.264 21.3848 143.293 21.0547 143.293 20.5352V19.3457H145.76V19.7148C145.76 20.6953 145.689 21.3906 145.549 21.8008C145.412 22.2109 145.105 22.5703 144.629 22.8789C144.156 23.1875 143.572 23.3418 142.877 23.3418C142.154 23.3418 141.558 23.2109 141.09 22.9492C140.621 22.6875 140.31 22.3262 140.158 21.8652C140.006 21.4004 139.93 20.7031 139.93 19.7734V17.002C139.93 16.3184 139.953 15.8066 140 15.4668C140.047 15.123 140.185 14.793 140.416 14.4766C140.65 14.1602 140.972 13.9121 141.383 13.7324C141.797 13.5488 142.271 13.457 142.806 13.457C143.533 13.457 144.133 13.5977 144.605 13.8789C145.078 14.1602 145.389 14.5117 145.537 14.9336C145.685 15.3516 145.76 16.0039 145.76 16.8906V17.793ZM151.613 13.6562V15.5547H150.148V23.1426H147.681V15.5547H146.222V13.6562H151.613ZM157.683 23.1426H155.621V18.8242L154.338 23.1426H152.176V13.6504H154.238V17.9336L155.621 13.6504H157.683V23.1426Z" fill="black" fill-opacity="0.9"/>
<path d="M21.701 15.541L6.04122 15.541" stroke="black"/>
<path d="M42.8096 28.0059L22.2062 28.0059" stroke="black"/>
<path d="M26.7526 21.7734H10.5876" stroke="black"/>
<path d="M31.8041 28.0059L17.6598 10.3467" stroke="black"/>
<path d="M175.108 15.918L192.948 16.06" stroke="black"/>
<path d="M164.499 27.791L181.567 27.791" stroke="black"/>
<path d="M170.056 21.5586H187.392" stroke="black"/>
<path d="M164.499 27.8777L180.159 10.2179" stroke="black"/>
</svg>
