<svg width="27" height="26" viewBox="0 0 27 26" fill="none" xmlns="http://www.w3.org/2000/svg">
<path d="M8.12518 0C4.14308 0 0.902954 3.24013 0.902954 7.22222V18.7778C0.902954 22.7599 4.14308 26 8.12518 26H19.6807C23.6628 26 26.903 22.7599 26.903 18.7778V7.22222C26.903 3.24013 23.6628 0 19.6807 0H8.12518ZM8.12518 2.88889H19.6807C22.0696 2.88889 24.0141 4.83339 24.0141 7.22222V18.7778C24.0141 21.1666 22.0696 23.1111 19.6807 23.1111H8.12518C5.73634 23.1111 3.79184 21.1666 3.79184 18.7778V7.22222C3.79184 4.83339 5.73634 2.88889 8.12518 2.88889ZM21.1252 4.33333C20.3275 4.33333 19.6807 4.98009 19.6807 5.77778C19.6807 6.57547 20.3275 7.22222 21.1252 7.22222C21.9229 7.22222 22.5696 6.57547 22.5696 5.77778C22.5696 4.98009 21.9229 4.33333 21.1252 4.33333ZM13.903 5.77778C9.92086 5.77778 6.68073 9.0179 6.68073 13C6.68073 16.9821 9.92086 20.2222 13.903 20.2222C17.8851 20.2222 21.1252 16.9821 21.1252 13C21.1252 9.0179 17.8851 5.77778 13.903 5.77778ZM13.903 8.66667C16.2918 8.66667 18.2363 10.6112 18.2363 13C18.2363 15.3888 16.2918 17.3333 13.903 17.3333C11.5141 17.3333 9.56962 15.3888 9.56962 13C9.56962 10.6112 11.5141 8.66667 13.903 8.66667Z" fill="white" fill-opacity="0.6"/>
</svg>
