<svg width="26" height="27" viewBox="0 0 26 27" fill="none" xmlns="http://www.w3.org/2000/svg">
<path d="M12.9194 0.0664062C5.81447 0.0664062 0.0302443 5.95632 0.027724 13.1973C0.0264637 15.5117 0.621269 17.7715 1.74913 19.7628L0 26.3694L6.75204 24.7434C8.63475 25.7902 10.7544 26.3398 12.9118 26.3411H12.9168C20.0205 26.3411 25.8022 20.4499 25.806 13.2102C25.8085 9.70013 24.4695 6.40006 22.0355 3.91681C19.6015 1.43485 16.3672 0.0676905 12.9194 0.0664062ZM12.9168 2.6967C15.6735 2.69799 18.2638 3.79352 20.2108 5.77652C22.1577 7.76208 23.2276 10.4014 23.2251 13.2076C23.2226 18.9993 18.5996 23.7108 12.9143 23.7108C11.1942 23.7095 9.49042 23.269 7.98954 22.4342L7.12002 21.9513L6.15976 22.1825L3.61924 22.7938L4.23925 20.4461L4.51901 19.3929L3.98469 18.4477C3.08366 16.859 2.60731 15.0423 2.60857 13.1973C2.61109 7.40825 7.23532 2.6967 12.9168 2.6967ZM8.35751 7.13533C8.14202 7.13533 7.79358 7.21753 7.49807 7.54632C7.20256 7.87382 6.36895 8.66689 6.36895 10.2819C6.36895 11.897 7.52327 13.4581 7.68458 13.6777C7.84462 13.896 9.91258 17.3149 13.1865 18.63C15.9066 19.723 16.4592 19.5072 17.0502 19.452C17.6413 19.3981 18.9569 18.6596 19.2253 17.8928C19.4937 17.1261 19.4944 16.4666 19.4143 16.3311C19.3343 16.1943 19.1195 16.1128 18.7968 15.9484C18.4755 15.784 16.8921 14.9915 16.5966 14.8824C16.3011 14.7732 16.0849 14.718 15.8707 15.0468C15.6565 15.3756 15.0409 16.1128 14.8525 16.3311C14.6641 16.5507 14.4769 16.5803 14.1543 16.4159C13.8317 16.2502 12.7946 15.9028 11.5634 14.7848C10.6057 13.9153 9.95983 12.8429 9.77144 12.5141C9.5843 12.1866 9.75379 12.0068 9.9151 11.8437C10.0594 11.6966 10.2352 11.4603 10.3965 11.2683C10.5565 11.0763 10.612 10.9395 10.7191 10.7212C10.8262 10.5028 10.7714 10.3102 10.6914 10.1458C10.6113 9.9814 9.98504 8.36058 9.69835 7.71071C9.45702 7.16487 9.20247 7.15203 8.97248 7.14304C8.78535 7.13533 8.57174 7.13533 8.35751 7.13533Z" fill="white" fill-opacity="0.6"/>
</svg>
